<?xml version="1.0" encoding="utf-8"?>
<!-- Generator: Adobe Illustrator 26.0.2, SVG Export Plug-In . SVG Version: 6.00 Build 0)  -->
<svg version="1.1" id="Layer_1" xmlns="http://www.w3.org/2000/svg" xmlns:xlink="http://www.w3.org/1999/xlink" x="0px" y="0px"
	 viewBox="0 0 1042.47 802.74" style="enable-background:new 0 0 1042.47 802.74;" xml:space="preserve">
<style type="text/css">
	.st0{fill:#1E32AA;}
	.st1{fill:#B4001E;}
	.st2{fill:#F5F5F5;}
	.st3{fill:#05193C;}
</style>
<g>
	<g>
		<path class="st0" d="M828.08,214.84c-59.74,0-113.35,26.2-150,67.73c-36.65-41.53-90.26-67.73-150-67.73
			c-36.44,0-70.58,9.76-100,26.79V14.84h-100v226.79c-29.42-17.03-63.56-26.79-100-26.79c-110.46,0-200,89.54-200,200
			s89.54,200,200,200c36.43,0,70.58-9.74,100-26.76v26.76h100v-200c0-55.23,44.77-100,100-100s100,44.77,100,100v200h100v-200
			c0-55.23,44.77-100,100-100s100,44.77,100,100h100C1028.08,304.38,938.54,214.84,828.08,214.84z M228.08,514.84
			c-55.23,0-100-44.77-100-100c0-55.23,44.77-100,100-100s100,44.77,100,100C328.08,470.07,283.31,514.84,228.08,514.84z"/>
		<g>
			<path class="st1" d="M973.7,477.91c9.67,13.09,19.23,25.08,27.7,37.79c6.58,9.87,12.24,20.42,17.56,31.05
				c13.71,27.45-5.15,61.72-37.06,67.33c-30.78,5.41-59.44-18.74-58.38-49.85c0.23-6.8,2.55-13.89,5.41-20.16
				C939.89,520.04,956.16,499.49,973.7,477.91z M1002.36,596.03c12.64-12.84,13.25-44.3,0.72-60.37
				C1009.83,556.6,1007.83,576.01,1002.36,596.03z"/>
			<path class="st2" d="M1002.36,596.03c5.47-20.02,7.47-39.43,0.72-60.37C1015.61,551.73,1015,583.2,1002.36,596.03z"/>
		</g>
	</g>
	<g>
		<g>
			<path class="st3" d="M112.53,639.3v110.51H94.66v-10.28c-6.26,7.6-15.49,11.32-26.36,11.32c-23.08,0-40.21-16.09-40.21-40.81
				c0-24.72,17.13-40.66,40.21-40.66c10.28,0,19.36,3.43,25.62,10.72V639.3H112.53z M94.21,710.05c0-15.19-10.28-24.87-23.68-24.87
				s-23.68,9.68-23.68,24.87s10.28,24.87,23.68,24.87S94.21,725.24,94.21,710.05z"/>
			<path class="st3" d="M134.42,646.01c0-6.26,5.06-11.17,11.91-11.17s11.92,4.62,11.92,10.72c0,6.55-4.92,11.62-11.92,11.62
				C139.49,657.18,134.42,652.26,134.42,646.01z M136.95,670.28h18.62v79.53h-18.62V670.28z"/>
			<path class="st3" d="M246.57,703.2v46.62h-17.57v-9.68c-4.47,6.85-13.11,10.72-25.02,10.72c-18.17,0-29.64-9.98-29.64-23.83
				c0-13.26,8.94-23.68,33.06-23.68h20.55v-1.19c0-10.87-6.55-17.28-19.81-17.28c-8.94,0-18.17,2.98-24.13,7.89l-7.3-13.55
				c8.49-6.55,20.85-9.83,33.66-9.83C233.31,669.39,246.57,680.26,246.57,703.2z M227.95,724.94v-9.23h-19.21
				c-12.66,0-16.09,4.77-16.09,10.57c0,6.7,5.66,11.02,15.19,11.02C216.93,737.3,224.82,733.13,227.95,724.94z"/>
			<path class="st3" d="M350.08,670.28v67.47c0,28.89-15.04,42-42.89,42c-14.89,0-29.64-3.87-38.72-11.32l8.34-14
				c7,5.81,18.32,9.53,29.34,9.53c17.57,0,25.32-8.04,25.32-24.13v-4.17c-6.55,7.15-15.94,10.57-26.66,10.57
				c-22.79,0-40.21-15.49-40.21-38.57c0-23.08,17.43-38.28,40.21-38.28c11.17,0,21,3.57,27.55,11.47v-10.57H350.08z M331.76,707.67
				c0-13.4-10.13-22.49-24.13-22.49c-14.15,0-24.28,9.09-24.28,22.49c0,13.55,10.13,22.79,24.28,22.79
				C321.63,730.45,331.76,721.22,331.76,707.67z"/>
			<path class="st3" d="M452.84,704.24v45.57h-18.62v-43.19c0-14.15-7-21-18.91-21c-13.26,0-22.19,8.04-22.19,23.98v40.21H374.5
				v-79.53h17.72v10.28c6.11-7.3,15.79-11.17,27.4-11.17C438.69,669.39,452.84,680.26,452.84,704.24z"/>
			<path class="st3" d="M470.71,710.05c0-23.83,17.87-40.66,42.3-40.66c24.72,0,42.45,16.83,42.45,40.66
				c0,23.83-17.72,40.81-42.45,40.81C488.58,750.86,470.71,733.88,470.71,710.05z M536.69,710.05c0-15.19-10.13-24.87-23.68-24.87
				c-13.4,0-23.53,9.68-23.53,24.87s10.13,24.87,23.53,24.87C526.56,734.92,536.69,725.24,536.69,710.05z"/>
			<path class="st3" d="M564.24,741.92l7.15-14.15c7,4.62,17.72,7.89,27.7,7.89c11.77,0,16.68-3.28,16.68-8.79
				c0-15.19-49.15-0.89-49.15-32.62c0-15.04,13.55-24.87,35-24.87c10.57,0,22.64,2.53,29.79,6.85l-7.15,14.15
				c-7.6-4.47-15.19-5.96-22.79-5.96c-11.32,0-16.68,3.72-16.68,8.94c0,16.09,49.15,1.79,49.15,32.91
				c0,14.89-13.7,24.58-36.04,24.58C584.65,750.86,571.39,746.99,564.24,741.92z"/>
			<path class="st3" d="M724.5,716.01h-62.4c2.23,11.62,11.92,19.06,25.77,19.06c8.94,0,15.94-2.83,21.6-8.64l9.98,11.47
				c-7.15,8.49-18.32,12.96-32.02,12.96c-26.66,0-43.94-17.13-43.94-40.81s17.43-40.66,41.11-40.66c23.23,0,40.21,16.23,40.21,41.11
				C724.79,711.99,724.65,714.22,724.5,716.01z M661.94,703.65h45.13c-1.49-11.47-10.28-19.36-22.49-19.36
				C672.52,684.28,663.73,692.03,661.94,703.65z"/>
		</g>
		<g>
			<path class="st3" d="M928.74,704.24v45.57h-18.62v-43.19c0-14.15-6.55-21-17.87-21c-12.21,0-20.7,8.04-20.7,23.83v40.36h-18.62
				v-43.19c0-14.15-6.55-21-17.87-21c-12.36,0-20.7,8.04-20.7,23.83v40.36h-18.62v-79.53h17.72v10.13
				c5.96-7.15,15.19-11.02,26.06-11.02c11.62,0,21.3,4.32,26.81,13.26c6.4-8.19,17.13-13.26,29.79-13.26
				C915.34,669.39,928.74,680.26,928.74,704.24z"/>
			<path class="st3" d="M1027.78,716.01h-62.4c2.23,11.62,11.92,19.06,25.77,19.06c8.94,0,15.94-2.83,21.6-8.64l9.98,11.47
				c-7.15,8.49-18.32,12.96-32.02,12.96c-26.66,0-43.94-17.13-43.94-40.81s17.43-40.66,41.11-40.66c23.23,0,40.21,16.23,40.21,41.11
				C1028.08,711.99,1027.93,714.22,1027.78,716.01z M965.23,703.65h45.13c-1.49-11.47-10.28-19.36-22.49-19.36
				C975.8,684.28,967.02,692.03,965.23,703.65z"/>
		</g>
	</g>
</g>
</svg>
