<svg width="590" height="615" viewBox="0 0 590 615" fill="none" xmlns="http://www.w3.org/2000/svg">
<g clip-path="url(#clip0_15_2497)">
<path d="M312.482 521.389L300.619 338.921H301.022L314.494 521.278L312.482 521.389ZM275.756 521.264L274.008 521.125L288.562 338.852H289.214L275.756 521.264ZM351.622 515.789L311.719 337.337L312.579 337.142L353.051 515.455L351.622 515.789ZM237.227 515.511L235.506 515.108L276.991 337.031L277.629 337.184L237.227 515.511ZM388.75 504.588L323.179 333.932L323.665 333.738L390.526 503.893L388.75 504.588ZM199.89 504.004L198.253 503.365L265.864 333.515L266.488 333.752L199.89 504.004ZM424.075 487.772L333.502 329.013L334.098 328.665L425.601 486.925L424.075 487.772ZM164.621 487.008L162.998 486.063L255.499 328.443L255.971 328.707L164.621 487.008ZM456.236 466.163L343.408 322.328L343.755 322.05L457.734 464.898L456.236 466.163ZM132.516 465.12L130.823 463.731L245.981 321.883L246.176 322.036L132.516 465.12ZM485.053 439.744L352.01 314.532L352.427 314.073L486.288 438.424L485.053 439.744ZM103.934 438.577L102.782 437.34L237.157 313.559L237.657 314.087L103.934 438.577ZM509.431 409.602L359.586 305.207L359.808 304.887L510.624 407.934L509.431 409.602ZM79.6397 408.212L78.5714 406.628L229.97 304.415L230.248 304.818L79.6397 408.212ZM529.313 375.554L365.274 295.34L365.649 294.576L529.993 374.164L529.313 375.554ZM60.0489 374.275L59.2164 372.524L224.198 294.242L224.406 294.673L60.0489 374.275ZM543.742 339.463L369.714 284.278L369.853 283.847L544.339 337.629C544.145 338.254 543.95 338.893 543.742 339.519V339.463ZM45.7304 337.879C45.5362 337.281 45.3558 336.698 45.1893 336.1L220.008 283.403L220.175 283.944L45.7304 337.879ZM552.719 301.219L372.35 273.16L372.448 272.493L553.011 299.495L552.719 301.219ZM37.1143 299.801C37.0172 299.176 36.934 298.564 36.8368 297.939L217.483 272.007L217.566 272.535L37.1143 299.801ZM555.841 262.71L373.294 261.084V260.32H555.855V260.681C555.855 261.362 555.855 262.029 555.841 262.71ZM216.692 260.862H34.1313V259.18L216.692 260.125V260.862ZM372.475 249.16V248.785L552.886 221.297C552.997 221.964 553.094 222.686 553.191 223.312L372.475 249.16ZM217.552 248.896L36.9478 222.2L37.2392 220.31L217.608 248.396L217.552 248.896ZM370.103 238.112L369.853 237.278L544.27 183.274L544.714 184.761L370.103 238.112ZM220.161 237.64L45.5778 183.941L46.1189 182.218L220.258 237.042L220.161 237.64ZM365.913 227.189L365.594 226.536L529.896 146.822L530.631 148.337L365.913 227.189ZM224.393 226.842L59.8547 147.434L60.59 145.919L224.628 226.174L224.393 226.842ZM360.183 217.114L359.725 216.419L510.235 113.094L511.123 114.401L360.183 217.114ZM230.289 216.627L79.3068 113.692C79.6536 113.164 80.0143 112.649 80.3751 112.135L230.511 216.155L230.289 216.627ZM352.635 207.539L352.399 207.288L485.997 82.6596C486.468 83.1599 486.926 83.6741 487.384 84.1883L352.635 207.539ZM237.615 207.413L103.559 83.1877L104.836 81.798L237.906 206.983L237.615 207.413ZM344.144 199.576L343.741 199.256L457.512 56.1997L458.9 57.3114L344.144 199.576ZM246.259 199.381L132.03 56.6444L133.57 55.4214L246.522 199.061L246.259 199.381ZM334.57 192.961L334.043 192.655L425.226 34.2284L426.794 35.1317L334.57 192.961ZM255.902 192.766L164.33 34.6175L165.953 33.6864L256.332 192.474L255.902 192.766ZM324.012 187.777L323.526 187.596L389.957 17.274L391.733 17.9828L324.012 187.777ZM266.419 187.666L199.238 17.5798L201.042 16.8849L266.793 187.471L266.419 187.666ZM312.968 184.317L312.496 184.205L352.496 5.78117L354.369 6.21198L312.968 184.317ZM277.435 184.317L236.63 5.97573L238.545 5.54492L277.809 184.122L277.435 184.317ZM301.382 182.579H300.869L314.064 0.208455L315.964 0.347424L301.382 182.579ZM289.006 182.579L275.173 0.138971L277.06 0L289.436 182.385L289.006 182.579Z" fill="#E6E6E6"/>
<path d="M80.4999 483.158C78.1484 483.197 75.8674 482.354 74.1038 480.796C73.1752 479.976 72.4434 478.956 71.9629 477.813C71.4825 476.67 71.2658 475.433 71.3289 474.195C71.302 473.013 71.5226 471.838 71.9767 470.747C72.4307 469.655 73.1081 468.671 73.9651 467.858C74.8185 467.012 75.8333 466.347 76.949 465.903C78.0646 465.459 79.2581 465.245 80.4583 465.273C81.634 465.256 82.8011 465.475 83.8909 465.917C84.9807 466.359 85.9712 467.016 86.8039 467.847C87.6366 468.679 88.2947 469.669 88.7395 470.759C89.1842 471.849 89.4066 473.017 89.3935 474.195C89.4559 475.421 89.2469 476.647 88.7816 477.783C88.3163 478.919 87.6061 479.939 86.7019 480.768C85.0077 482.317 82.7936 483.17 80.4999 483.158Z" fill="#EBEBEB"/>
<path d="M52.3763 413.367C52.4732 409.365 53.7104 405.474 55.9421 402.152C58.5376 398.166 62.1236 394.923 66.3479 392.744C71.2715 390.171 76.7657 388.89 82.3175 389.02C87.4735 388.916 92.5862 389.981 97.2742 392.133C101.334 393.979 104.805 396.912 107.306 400.61C109.622 404.049 110.855 408.106 110.844 412.256C110.913 415.274 110.221 418.262 108.832 420.941C107.569 423.319 105.95 425.489 104.031 427.376C102.181 429.182 98.8606 432.221 94.0692 436.492C92.9474 437.493 91.882 438.555 90.8781 439.674C89.6078 441.021 88.684 442.657 88.1864 444.441C87.9783 445.205 87.6453 446.54 87.2291 448.443C86.4799 452.474 84.1628 454.503 80.2918 454.503C79.3499 454.525 78.4128 454.361 77.5342 454.02C76.6557 453.679 75.853 453.168 75.1721 452.515C74.4417 451.731 73.8811 450.804 73.5253 449.792C73.1696 448.781 73.0264 447.706 73.1048 446.637C73.0124 443.93 73.4551 441.231 74.4076 438.696C75.36 436.161 76.8034 433.839 78.6546 431.864C80.3288 430.058 82.5904 427.913 85.4393 425.43C87.9367 423.244 89.7404 421.599 90.8503 420.497C91.9436 419.401 92.8777 418.156 93.6253 416.8C94.3824 415.451 94.7746 413.928 94.763 412.381C94.7878 410.895 94.4891 409.422 93.8877 408.063C93.2862 406.705 92.3965 405.494 91.2805 404.515C88.8216 402.321 85.6078 401.17 82.3175 401.305C78.0257 401.305 74.8669 402.384 72.8412 404.543C70.4493 407.308 68.6754 410.554 67.6383 414.062C66.2508 418.454 63.795 420.649 60.0905 420.649C59.0559 420.674 58.0275 420.482 57.0717 420.085C56.1158 419.687 55.2536 419.094 54.5407 418.342C53.8652 417.701 53.3254 416.93 52.9535 416.075C52.5817 415.221 52.3854 414.3 52.3763 413.367Z" fill="#EBEBEB"/>
<path d="M513.454 376.429C511.108 376.274 508.9 375.26 507.252 373.58C506.402 372.683 505.762 371.608 505.378 370.433C504.994 369.257 504.876 368.011 505.032 366.784C505.099 365.602 505.411 364.446 505.948 363.39C506.486 362.335 507.237 361.404 508.154 360.656C509.07 359.883 510.131 359.302 511.275 358.946C512.419 358.591 513.622 358.468 514.814 358.585C515.988 358.657 517.136 358.963 518.19 359.486C519.244 360.009 520.183 360.739 520.951 361.631C521.719 362.524 522.301 363.561 522.663 364.682C523.024 365.804 523.158 366.986 523.055 368.16C523.024 369.389 522.721 370.595 522.17 371.693C521.618 372.791 520.831 373.753 519.864 374.511C518.044 375.935 515.756 376.619 513.454 376.429Z" fill="#F0F0F0"/>
<path d="M490.714 304.679C491.115 300.695 492.646 296.91 495.126 293.77C498.027 289.998 501.85 287.04 506.226 285.181C511.332 282.997 516.905 282.136 522.431 282.68C527.582 282.968 532.601 284.422 537.11 286.932C541.018 289.084 544.258 292.272 546.476 296.146C548.525 299.757 549.443 303.902 549.112 308.042C548.949 311.051 548.033 313.971 546.448 316.533C545.002 318.805 543.225 320.847 541.176 322.592C539.187 324.241 535.644 327.021 530.548 330.93C529.353 331.845 528.209 332.824 527.121 333.863C526.374 334.571 525.713 335.364 525.151 336.225C524.72 336.918 524.362 337.654 524.082 338.421C523.805 339.157 523.388 340.464 522.82 342.326C521.765 346.301 519.309 348.135 515.411 347.885C514.473 347.836 513.553 347.603 512.706 347.197C511.858 346.792 511.099 346.223 510.471 345.522C509.783 344.68 509.283 343.699 509.003 342.647C508.723 341.595 508.67 340.496 508.848 339.422C508.961 336.714 509.608 334.055 510.751 331.598C511.894 329.142 513.51 326.936 515.508 325.108C517.819 323.02 520.236 321.053 522.75 319.215C525.4 317.228 527.329 315.741 528.522 314.713C529.709 313.708 530.746 312.538 531.602 311.238C532.458 309.95 532.965 308.46 533.073 306.916C533.208 305.436 533.022 303.944 532.526 302.543C532.03 301.142 531.237 299.865 530.201 298.8C527.911 296.429 524.793 295.039 521.502 294.923C517.214 294.604 513.995 295.437 511.789 297.425C509.217 300.016 507.222 303.123 505.934 306.541C504.288 310.803 501.615 312.799 497.915 312.531C496.882 312.467 495.874 312.187 494.956 311.708C494.038 311.23 493.231 310.563 492.587 309.751C491.952 309.074 491.459 308.276 491.138 307.405C490.816 306.534 490.672 305.607 490.714 304.679Z" fill="#F0F0F0"/>
<path d="M74.2842 146.558C72.2047 146.48 70.2277 145.634 68.7344 144.182C67.9565 143.406 67.363 142.465 66.998 141.428C66.6329 140.391 66.5055 139.285 66.6254 138.192C66.6547 137.144 66.9033 136.114 67.355 135.169C67.8067 134.223 68.4515 133.383 69.2477 132.703C70.0441 131.997 70.974 131.458 71.9822 131.119C72.9904 130.78 74.0563 130.648 75.1166 130.729C76.1685 130.752 77.2044 130.993 78.1594 131.435C79.1143 131.877 79.9678 132.512 80.6665 133.3C81.3754 134.065 81.9188 134.969 82.2626 135.954C82.6064 136.939 82.7432 137.985 82.6644 139.026C82.6638 140.118 82.4221 141.196 81.9568 142.184C81.4915 143.171 80.814 144.043 79.9727 144.738C78.3751 146.044 76.3421 146.695 74.2842 146.558Z" fill="#E6E6E6"/>
<path d="M52.5983 83.452C52.8765 79.9254 54.1518 76.5511 56.275 73.7241C58.7731 70.303 62.1214 67.5961 65.9872 65.8723C70.4632 63.8223 75.3836 62.9379 80.2918 63.3013C84.867 63.4489 89.3495 64.632 93.4033 66.7617C96.9069 68.5891 99.8436 71.3431 101.894 74.7247C103.785 77.8843 104.689 81.5385 104.489 85.2169C104.406 87.8905 103.652 90.5 102.297 92.8047C101.069 94.8488 99.5395 96.6949 97.7599 98.2802C96.0394 99.7996 92.9547 102.338 88.5056 105.896C87.2846 106.91 86.2856 107.8 85.5364 108.564C84.893 109.211 84.3251 109.929 83.8437 110.704C83.4781 111.33 83.176 111.991 82.9419 112.678C82.7199 113.331 82.373 114.498 81.9013 116.166C81.0549 119.709 78.9183 121.391 75.4635 121.21C74.6285 121.185 73.8065 120.996 73.0447 120.653C72.2828 120.309 71.5961 119.819 71.0237 119.209C70.4084 118.485 69.951 117.64 69.681 116.728C69.411 115.816 69.3343 114.858 69.4558 113.914C69.4899 111.515 69.9979 109.147 70.9504 106.945C71.9029 104.744 73.2812 102.753 75.0056 101.087C77.008 99.179 79.1106 97.3791 81.3047 95.6953C83.6078 93.8887 85.2867 92.5129 86.3134 91.5262C87.347 90.6125 88.2441 89.5548 88.9773 88.3855C89.7099 87.2255 90.1261 85.8934 90.1844 84.5221C90.2671 83.2032 90.0617 81.882 89.5825 80.6507C89.1032 79.4195 88.3617 78.3077 87.4095 77.3929C85.3297 75.3371 82.5338 74.1711 79.612 74.141C75.8104 73.9464 72.9661 74.7525 71.0792 76.5591C68.8513 78.9055 67.1485 81.7007 66.0843 84.7583C64.6969 88.5939 62.3798 90.4144 59.1471 90.2477C58.234 90.2194 57.3367 90.0009 56.5126 89.6062C55.6884 89.2114 54.9555 88.6489 54.3604 87.9547C53.7836 87.3585 53.3308 86.6534 53.0283 85.8804C52.7258 85.1075 52.5796 84.282 52.5983 83.452Z" fill="#E6E6E6"/>
<path d="M133.736 355.556C132.413 355.477 131.166 354.907 130.24 353.957C129.756 353.454 129.392 352.847 129.173 352.183C128.955 351.52 128.888 350.815 128.978 350.122C129.015 349.454 129.191 348.801 129.494 348.206C129.798 347.61 130.222 347.084 130.74 346.661C131.257 346.224 131.855 345.895 132.501 345.692C133.146 345.489 133.826 345.417 134.5 345.48C135.164 345.517 135.814 345.689 136.411 345.985C137.007 346.281 137.537 346.696 137.968 347.203C138.408 347.703 138.74 348.287 138.943 348.921C139.146 349.555 139.215 350.224 139.148 350.886C139.135 351.58 138.967 352.261 138.658 352.882C138.348 353.502 137.904 354.045 137.358 354.472C136.33 355.276 135.037 355.663 133.736 355.556Z" fill="#EBEBEB"/>
<path d="M120.861 315.06C121.085 312.813 121.947 310.676 123.344 308.904C124.974 306.767 127.131 305.091 129.602 304.04C132.486 302.82 135.629 302.343 138.745 302.65C141.665 302.806 144.511 303.623 147.07 305.041C149.242 306.269 151.04 308.066 152.273 310.238C153.435 312.274 153.957 314.613 153.771 316.95C153.682 318.654 153.167 320.307 152.273 321.759C151.455 323.042 150.45 324.194 149.29 325.177C148.18 326.104 146.182 327.674 143.296 329.889C142.62 330.4 141.976 330.952 141.367 331.542C140.599 332.251 140.01 333.132 139.647 334.113C139.499 334.53 139.263 335.267 138.939 336.323C138.799 337.288 138.281 338.158 137.501 338.742C136.721 339.325 135.741 339.575 134.777 339.436C134.245 339.402 133.726 339.262 133.249 339.023C132.772 338.784 132.348 338.452 132.002 338.046C131.621 337.574 131.341 337.027 131.181 336.441C131.021 335.855 130.984 335.242 131.073 334.641C131.163 333.005 131.578 331.404 132.294 329.93C132.935 328.668 133.795 327.529 134.833 326.567C136.161 325.384 137.551 324.27 138.995 323.232C140.493 322.102 141.576 321.254 142.242 320.689C142.905 320.117 143.489 319.458 143.976 318.729C144.458 317.999 144.745 317.157 144.808 316.283C144.887 315.447 144.782 314.603 144.502 313.811C144.221 313.019 143.772 312.298 143.185 311.697C141.889 310.365 140.13 309.584 138.273 309.515C137.314 309.357 136.332 309.399 135.389 309.638C134.446 309.877 133.562 310.309 132.793 310.905C131.347 312.368 130.227 314.12 129.505 316.047C128.561 318.465 127.063 319.591 124.968 319.438C124.387 319.408 123.819 319.256 123.301 318.993C122.782 318.73 122.324 318.361 121.957 317.909C121.23 317.142 120.836 316.118 120.861 315.06Z" fill="#EBEBEB"/>
<path d="M412.725 375.859C411.4 375.776 410.154 375.201 409.229 374.247C408.746 373.743 408.382 373.137 408.164 372.473C407.945 371.809 407.878 371.105 407.966 370.412C408.005 369.746 408.181 369.096 408.485 368.503C408.788 367.909 409.212 367.386 409.728 366.965C410.242 366.523 410.84 366.19 411.487 365.986C412.133 365.783 412.814 365.715 413.488 365.784C414.153 365.821 414.803 365.993 415.399 366.289C415.996 366.585 416.526 367 416.957 367.507C417.397 368.006 417.728 368.591 417.931 369.225C418.134 369.859 418.204 370.528 418.136 371.19C418.123 371.883 417.956 372.565 417.646 373.186C417.337 373.806 416.893 374.349 416.347 374.776C415.318 375.58 414.026 375.967 412.725 375.859Z" fill="#EBEBEB"/>
<path d="M399.85 335.363C400.071 333.115 400.933 330.978 402.333 329.207C403.962 327.069 406.119 325.393 408.591 324.343C411.472 323.111 414.618 322.633 417.734 322.953C420.654 323.109 423.5 323.926 426.059 325.344C428.264 326.556 430.094 328.355 431.345 330.541C432.507 332.577 433.029 334.916 432.843 337.253C432.756 338.953 432.241 340.602 431.345 342.048C430.531 343.334 429.531 344.491 428.376 345.48C427.247 346.407 425.245 347.973 422.368 350.178C421.577 350.803 420.981 351.359 420.44 351.831C420.018 352.251 419.645 352.717 419.33 353.221C419.092 353.618 418.892 354.037 418.733 354.472C418.58 354.889 418.331 355.625 418.011 356.667C417.943 357.147 417.782 357.608 417.536 358.024C417.29 358.441 416.964 358.805 416.577 359.095C416.191 359.385 415.751 359.597 415.283 359.717C414.815 359.837 414.327 359.863 413.849 359.794C412.78 359.707 411.786 359.209 411.074 358.405C410.696 357.931 410.419 357.384 410.261 356.798C410.104 356.212 410.069 355.6 410.159 355C410.218 353.472 410.579 351.972 411.222 350.586C411.866 349.2 412.777 347.956 413.905 346.926C414.931 345.981 416.291 344.869 418.067 343.59C419.565 342.46 420.648 341.612 421.314 341.047C421.986 340.475 422.574 339.81 423.062 339.074C423.544 338.344 423.826 337.501 423.88 336.628C423.958 335.793 423.853 334.952 423.572 334.163C423.292 333.373 422.843 332.654 422.257 332.056C420.962 330.721 419.202 329.939 417.345 329.874C416.388 329.714 415.408 329.756 414.467 329.995C413.526 330.234 412.645 330.666 411.879 331.264C410.421 332.719 409.294 334.473 408.577 336.406C407.633 338.824 406.135 339.949 404.04 339.796C403.461 339.759 402.895 339.604 402.378 339.341C401.86 339.079 401.402 338.713 401.029 338.268C400.649 337.887 400.348 337.434 400.146 336.935C399.943 336.436 399.843 335.902 399.85 335.363Z" fill="#EBEBEB"/>
<path d="M513.302 155.73C511.968 155.733 510.682 155.237 509.694 154.34C509.175 153.875 508.767 153.298 508.501 152.654C508.234 152.009 508.116 151.312 508.154 150.616C508.142 149.948 508.267 149.285 508.523 148.668C508.778 148.051 509.158 147.493 509.639 147.03C510.128 146.569 510.703 146.208 511.332 145.97C511.96 145.731 512.63 145.619 513.302 145.641C513.963 145.618 514.622 145.729 515.24 145.968C515.858 146.207 516.421 146.568 516.895 147.03C517.369 147.497 517.743 148.055 517.994 148.672C518.244 149.289 518.366 149.95 518.352 150.616C518.389 151.309 518.271 152.002 518.007 152.644C517.743 153.285 517.339 153.86 516.826 154.326C515.873 155.228 514.612 155.73 513.302 155.73Z" fill="#EBEBEB"/>
<path d="M497.429 116.332C497.482 114.07 498.18 111.871 499.441 109.995C500.908 107.744 502.936 105.914 505.324 104.686C508.099 103.231 511.197 102.505 514.328 102.574C517.242 102.512 520.132 103.116 522.778 104.339C525.069 105.38 527.028 107.034 528.439 109.119C529.75 111.064 530.446 113.36 530.437 115.707C530.477 117.407 530.086 119.091 529.299 120.598C528.581 121.939 527.669 123.166 526.593 124.239C525.553 125.254 523.68 127.019 520.96 129.381C520.329 129.943 519.732 130.542 519.171 131.174C518.777 131.594 518.437 132.061 518.158 132.564C517.948 132.973 517.776 133.401 517.644 133.842C517.533 134.273 517.339 135.023 517.103 136.094C517.072 136.578 516.945 137.051 516.73 137.485C516.515 137.92 516.217 138.308 515.852 138.627C515.487 138.946 515.063 139.19 514.604 139.344C514.145 139.498 513.66 139.56 513.177 139.526C512.645 139.541 512.116 139.449 511.62 139.256C511.124 139.062 510.672 138.772 510.291 138.4C509.872 137.961 509.551 137.438 509.348 136.866C509.145 136.293 509.064 135.685 509.112 135.079C509.077 133.444 509.369 131.818 509.972 130.298C510.516 128.988 511.286 127.784 512.247 126.741C513.461 125.463 514.739 124.248 516.077 123.1C517.464 121.877 518.505 120.946 519.129 120.32C519.76 119.708 520.298 119.005 520.725 118.236C521.146 117.47 521.365 116.609 521.363 115.734C521.376 114.896 521.206 114.066 520.866 113.3C520.526 112.535 520.023 111.852 519.393 111.301C518.003 110.063 516.187 109.415 514.328 109.495C513.36 109.406 512.385 109.523 511.464 109.836C510.544 110.15 509.7 110.654 508.987 111.315C507.645 112.88 506.651 114.713 506.073 116.693C505.324 119.167 503.909 120.404 501.814 120.404C501.234 120.417 500.659 120.309 500.123 120.086C499.588 119.864 499.105 119.532 498.706 119.111C498.318 118.757 498.005 118.329 497.785 117.852C497.566 117.374 497.445 116.857 497.429 116.332Z" fill="#EBEBEB"/>
<path d="M589.986 606.328C589.986 611.122 457.915 615 294.986 615C132.058 615 0 611.122 0 606.328C0 601.534 132.072 597.656 294.986 597.656C457.901 597.656 589.986 601.534 589.986 606.328Z" fill="#F5F5F5"/>
<path d="M130.753 192.836C130.753 170.971 137.469 148.824 150.899 126.394C164.33 103.964 183.93 85.3836 209.699 70.6527C235.469 55.9404 265.531 48.5796 299.884 48.5703C331.804 48.5703 359.993 54.7221 384.449 67.0256C408.905 79.3291 427.788 96.0704 441.099 117.25C454.255 137.852 461.192 161.82 461.078 186.276C461.078 205.825 457.281 222.964 449.687 237.695C442.606 251.69 433.472 264.544 422.59 275.829C412.129 286.529 393.356 304.535 366.273 329.847C359.918 335.775 353.897 342.052 348.237 348.649C341.005 356.757 335.777 366.454 332.975 376.958C331.763 381.451 329.95 389.326 327.536 400.583C323.346 424.513 310.239 436.479 288.215 436.479C282.853 436.6 277.523 435.621 272.552 433.601C267.582 431.582 263.077 428.564 259.315 424.736C251.508 416.926 247.6 405.308 247.591 389.882C247.591 370.556 250.454 353.819 256.179 339.672C261.585 326.029 269.297 313.421 278.975 302.4C291.122 289.044 303.94 276.317 317.38 264.266C331.467 251.388 341.641 241.661 347.904 235.083C354.167 228.539 359.503 221.165 363.762 213.167C368.055 205.094 370.268 196.076 370.2 186.929C370.365 178.218 368.7 169.57 365.313 161.545C361.926 153.52 356.893 146.297 350.54 140.346C337.442 127.682 320.543 121.354 299.842 121.363C275.617 121.363 257.779 127.746 246.328 140.513C234.877 153.28 225.202 172.101 217.303 196.977C209.81 222.983 195.603 235.981 174.68 235.972C168.808 236.067 162.984 234.9 157.601 232.548C152.218 230.196 147.401 226.715 143.476 222.339C135.004 213.25 130.763 203.416 130.753 192.836Z" fill="#1E32AA"/>
<g opacity="0.2">
<path d="M362.069 293.103C356.242 260.403 350.193 247.243 342.354 240.753C336.193 246.84 327.869 254.678 317.38 264.267C303.857 276.663 292.674 287.623 283.831 297.147C287.189 340.061 291.962 400.972 292.017 401.5L294.903 436.09C307.168 434.58 316.131 428.636 321.792 418.26C320.751 405.391 318.392 400.374 318.392 400.374C318.392 400.374 321.362 356.543 324.206 322.398C328.216 335.989 332.059 351.207 337.22 365.576C337.539 364.881 337.845 364.187 338.178 363.492C340.945 358.164 344.331 353.182 348.264 348.65C353.924 342.052 359.946 335.775 366.301 329.847L368.452 327.832C365.705 313.99 363.332 300.927 362.069 293.103Z" fill="black"/>
</g>
<g opacity="0.2">
<path d="M378.025 246.728L365.108 210.596C364.692 211.485 364.262 212.361 363.804 213.236C361.269 217.976 358.355 222.503 355.091 226.772L367.8 250.716C366.751 252.264 366.208 254.1 366.246 255.97C366.509 259.36 365.829 262.14 366.246 264.641C366.662 267.143 368.452 264.266 369.118 262.529C369.784 260.792 370.505 258.832 371.768 259.541C373.03 260.25 379.066 270.784 380.869 271.576C382.673 272.368 382.257 270.353 382.257 270.353C382.257 270.353 383.797 272.868 384.962 272.535C385.268 272.438 385.823 271.743 385.295 270.492C384.116 267.713 381.341 261.848 381.341 261.848C381.494 262.182 385.434 269.116 386.156 270.075C387.113 271.326 388.195 271.465 388.93 270.867C389.943 270.047 385.337 261.292 385.406 260.778C385.406 260.778 387.876 265.906 389.569 265.989C391.261 266.073 389.86 262.765 388.084 260.069C386.447 257.609 383.922 252.342 382.007 249.994C380.981 248.582 379.61 247.457 378.025 246.728Z" fill="black"/>
</g>
<g opacity="0.2">
<path d="M230.442 157.162L230.678 157.037C232.551 156.022 230.941 148.309 230.941 148.309C230.941 148.309 232.87 146.225 232.135 144.265C231.746 143.237 231.274 143.07 231.274 143.07C231.617 142.689 231.876 142.24 232.037 141.753C232.197 141.266 232.255 140.751 232.207 140.241C232.159 139.73 232.005 139.235 231.756 138.787C231.508 138.339 231.169 137.947 230.761 137.637L230.511 137.456C231.149 136.608 230.511 133.94 228.791 134.676C228.059 135.088 227.359 135.552 226.696 136.066V132.856H227.167C232.925 132.508 237.199 125.907 236.727 118C236.255 110.093 231.177 104.103 225.433 104.409C225.088 104.434 224.745 104.48 224.406 104.548C224.065 104.527 223.722 104.527 223.38 104.548C217.622 104.895 213.348 111.496 213.82 119.417C214.264 126.658 218.593 132.37 223.782 132.953V138.262C220.633 140.68 217.261 143.598 217.372 144.432C217.539 145.822 221.451 158.718 221.451 158.718H221.548C221.881 161.984 222.755 169.836 224.073 178.327C226.419 172.571 229.068 166.944 232.01 161.47L230.442 157.162Z" fill="black"/>
</g>
<g opacity="0.2">
<path d="M285.94 88.9274H285.843C284.987 88.8198 284.124 88.7826 283.262 88.8162C280.071 88.5938 277.324 88.3159 269.721 91.137C266.201 92.4815 263.075 94.6883 260.627 97.5554C258.179 100.423 256.487 103.859 255.707 107.549C255.083 115.179 256.512 120.96 256.942 128.59L257.539 127.77C257.539 128.534 257.539 129.284 257.539 130.021C257.539 130.424 257.622 130.827 257.664 131.216C268.458 124.731 282.513 121.46 299.828 121.405C300.772 121.405 301.688 121.405 302.603 121.405C302.41 121.135 302.181 120.892 301.923 120.682C302.492 118.667 302.95 116.582 303.311 114.623C303.67 112.709 303.782 110.757 303.644 108.814C306.378 109.68 308.668 111.579 310.026 114.109C311.264 116.961 312.653 119.744 314.188 122.447C324.867 124.055 335.003 128.211 343.741 134.565C347.452 133.955 350.974 132.5 354.036 130.313C358.545 126.936 361.598 120.376 359.697 114.706C358.836 115.544 357.797 116.175 356.658 116.553C355.519 116.93 354.31 117.045 353.12 116.888C354.13 115.746 354.848 114.375 355.213 112.894C355.578 111.413 355.579 109.865 355.215 108.383C347.418 111.482 338.108 115.332 330.644 111.371C327.217 109.551 325.011 105.618 322.319 102.685C319.627 99.7532 316.589 96.8765 312.94 95.7369C309.957 94.7919 304.129 96.6263 301.008 99.2946C300.504 98.3948 299.938 97.5312 299.315 96.7097C296.318 93.7635 291.739 89.7195 285.94 88.9274Z" fill="black"/>
</g>
<path d="M289.631 606.328C276.261 606.473 263.347 601.468 253.557 592.348C243.271 583.009 238.128 569.955 238.128 553.186C238.128 538.307 243.1 525.8 253.043 515.664C257.761 510.714 263.455 506.798 269.762 504.167C276.07 501.536 282.854 500.245 289.686 500.377C296.415 500.249 303.094 501.545 309.289 504.179C315.483 506.813 321.053 510.727 325.635 515.664C335.366 525.855 340.226 538.363 340.217 553.186C340.217 569.724 335.13 582.717 324.955 592.167C315.485 601.338 302.802 606.422 289.631 606.328Z" fill="#1E32AA"/>
<g opacity="0.2">
<path d="M292.405 513.774C290.896 512.571 289.005 511.954 287.078 512.036C281.875 511.799 276.671 512.457 271.691 513.982C263.968 516.938 257.595 522.626 253.776 529.97C249.956 537.315 248.955 545.806 250.962 553.839C251.864 557.452 254.251 561.51 257.9 561.357C260.355 561.246 262.27 559.272 263.907 557.438C267.811 553.065 271.705 548.692 275.59 544.319C281.431 537.76 287.314 531.159 291.712 523.557C293.515 520.514 294.903 516.261 292.405 513.774Z" fill="white"/>
</g>
<path d="M368.271 37.8558C362.358 33.4504 355.086 31.2668 347.729 31.6868C340.371 32.1068 333.394 35.1036 328.018 40.1535C322.643 45.2034 319.21 51.985 318.321 59.3128C317.431 66.6407 319.141 74.0487 323.151 80.2418L320.612 89.3583L330.533 88.2743C330.671 88.3855 330.796 88.5106 330.935 88.6078C337.654 93.567 346.065 95.6495 354.317 94.3972C362.569 93.1449 369.987 88.6605 374.938 81.9303C379.889 75.2002 381.968 66.7757 380.718 58.5101C379.468 50.2445 374.991 42.815 368.271 37.8558Z" fill="#407BFF"/>
<path opacity="0.7" d="M368.271 37.8558C362.358 33.4504 355.086 31.2668 347.729 31.6868C340.371 32.1068 333.394 35.1036 328.018 40.1535C322.643 45.2034 319.21 51.985 318.321 59.3128C317.431 66.6407 319.141 74.0487 323.151 80.2418L320.612 89.3583L330.533 88.2743C330.671 88.3855 330.796 88.5106 330.935 88.6078C337.654 93.567 346.065 95.6495 354.317 94.3972C362.569 93.1449 369.987 88.6605 374.938 81.9303C379.889 75.2002 381.968 66.7757 380.718 58.5101C379.468 50.2445 374.991 42.815 368.271 37.8558Z" fill="white"/>
<path d="M371.657 35.8828C375.868 38.8169 379.291 42.7468 381.621 47.3238C383.952 51.9008 385.119 56.9834 385.018 62.1204" stroke="#407BFF" stroke-width="0.5" stroke-linecap="round" stroke-linejoin="round"/>
<path d="M384.713 66.8037C384.785 68.3725 384.53 69.9393 383.963 71.4036" stroke="#407BFF" stroke-width="0.5" stroke-linecap="round" stroke-linejoin="round"/>
<path d="M347.557 64.816C348.223 63.7415 348.999 62.7401 349.874 61.8281C350.483 61.2104 351.031 60.5356 351.511 59.813C351.869 59.2646 352.053 58.6201 352.038 57.9647C352.057 57.5275 351.977 57.0917 351.804 56.6898C351.631 56.2879 351.37 55.9304 351.039 55.6439C350.291 55.0419 349.348 54.7354 348.389 54.7823C347.41 54.7749 346.448 55.0446 345.614 55.5605C344.761 56.1104 344.048 56.8529 343.533 57.7285L339.44 54.9491C340.336 53.3093 341.666 51.9486 343.283 51.0162C345.036 50.0504 347.014 49.5707 349.014 49.6265C351.255 49.5122 353.464 50.202 355.243 51.5721C356.024 52.2232 356.644 53.0459 357.056 53.9763C357.467 54.9067 357.659 55.9197 357.616 56.9363C357.634 57.9103 357.479 58.8797 357.158 59.7991C356.896 60.5466 356.522 61.2496 356.048 61.8837C355.604 62.4535 355.035 63.1066 354.341 63.8571C353.668 64.5387 353.055 65.2781 352.51 66.0667C352.118 66.7203 351.921 67.4725 351.941 68.2346H346.835C346.765 67.0509 347.015 65.8702 347.557 64.816ZM347.029 76.8647C346.726 76.5665 346.487 76.2091 346.327 75.8147C346.167 75.4203 346.09 74.9972 346.1 74.5717C346.087 74.1523 346.16 73.7348 346.316 73.3451C346.471 72.9554 346.704 72.6019 347.002 72.3065C347.31 72.0072 347.675 71.773 348.076 71.6179C348.476 71.4627 348.904 71.3897 349.333 71.4032C349.762 71.3873 350.19 71.4592 350.591 71.6145C350.992 71.7698 351.357 72.0052 351.664 72.3065C351.963 72.6012 352.199 72.9543 352.356 73.3439C352.514 73.7336 352.59 74.1514 352.579 74.5717C352.573 75.2129 352.378 75.838 352.02 76.3692C351.661 76.9003 351.154 77.3139 350.562 77.5585C349.97 77.803 349.32 77.8676 348.692 77.7442C348.063 77.6209 347.485 77.315 347.029 76.8647Z" fill="#407BFF"/>
<path d="M207.271 114.192C206.827 106.812 210.574 100.489 215.804 99.4609C215.462 99.4401 215.119 99.4401 214.778 99.4609C209.02 99.8084 204.746 106.409 205.218 114.331C205.69 122.252 210.768 128.228 216.512 127.908C216.856 127.888 217.199 127.846 217.539 127.783C212.225 127.394 207.771 121.585 207.271 114.192Z" fill="#263238"/>
<path opacity="0.5" d="M216.456 127.797C222.042 127.797 226.571 121.451 226.571 113.622C226.571 105.794 222.042 99.4473 216.456 99.4473C210.87 99.4473 206.342 105.794 206.342 113.622C206.342 121.451 210.87 127.797 216.456 127.797Z" fill="white"/>
<path opacity="0.5" d="M222.714 103.574L206.758 117.666C207.027 118.944 207.437 120.188 207.979 121.376L224.42 106.52C224.004 105.457 223.428 104.464 222.714 103.574Z" fill="white"/>
<path opacity="0.5" d="M220.549 101.212L206.383 114.65L206.508 115.832L221.59 102.254C221.174 101.254 221.229 101.587 220.549 101.212Z" fill="white"/>
<path d="M228.125 112.899C227.639 105.034 222.575 99.0023 216.831 99.308C216.486 99.3283 216.144 99.3701 215.804 99.4331C221.118 99.8222 225.614 105.631 226.071 113.024C226.529 120.418 222.436 126.741 217.206 127.769C217.668 127.798 218.131 127.798 218.593 127.769C224.323 127.436 228.583 120.779 228.125 112.899Z" fill="#263238"/>
<path d="M215.18 127.853H218.094V148.504C218.094 148.872 217.947 149.226 217.687 149.486C217.427 149.747 217.074 149.893 216.706 149.893C216.338 149.893 215.985 149.747 215.725 149.486C215.465 149.226 215.319 148.872 215.319 148.504V127.853H215.18Z" fill="#263238"/>
<path d="M245.232 165.791L233.647 184.01L221.16 150.102L212.835 152.019C212.835 152.019 216.762 193.975 223.283 200.451C225.431 202.712 228.346 204.087 231.455 204.306C234.564 204.524 237.642 203.571 240.085 201.632C245.01 197.741 261.382 177.201 261.382 177.201L245.232 165.791Z" fill="#B97964"/>
<path d="M212.849 153.631C212.849 153.631 208.936 140.693 208.77 139.303C208.603 137.914 218.482 130.423 220.189 129.576C221.895 128.728 222.547 131.493 221.909 132.355L222.159 132.536C222.566 132.846 222.905 133.238 223.154 133.686C223.403 134.134 223.556 134.629 223.605 135.14C223.653 135.65 223.595 136.165 223.434 136.652C223.274 137.139 223.014 137.588 222.672 137.969C222.672 137.969 223.144 138.136 223.532 139.165C224.268 141.11 222.339 143.195 222.339 143.195C222.339 143.195 223.949 150.921 222.076 151.936C220.971 152.687 219.746 153.241 218.454 153.576L212.849 153.631Z" fill="#B97964"/>
<path d="M215.804 146.975L218.468 144.974V149.546C218.485 149.743 218.463 149.942 218.402 150.131C218.341 150.32 218.243 150.494 218.114 150.645C217.984 150.795 217.826 150.918 217.649 151.006C217.472 151.094 217.278 151.146 217.081 151.158C216.883 151.146 216.69 151.094 216.513 151.006C216.335 150.918 216.177 150.795 216.048 150.645C215.919 150.494 215.821 150.32 215.76 150.131C215.699 149.942 215.676 149.743 215.693 149.546L215.804 146.975Z" fill="#263238"/>
<path d="M290.435 469.984L292.239 488.94L306.474 490.496L307.917 470.123L290.435 469.984Z" fill="#B97964"/>
<path d="M289.159 485.91C289.156 485.73 289.191 485.552 289.261 485.387C289.331 485.222 289.435 485.073 289.565 484.95C289.696 484.827 289.85 484.733 290.019 484.673C290.188 484.614 290.368 484.59 290.546 484.603L294.875 484.77C295.971 484.77 297.081 486.827 297.719 487.73C300.494 491.649 302.562 490.218 305.642 486.604C307.57 486.396 308.056 488.661 308.209 489.273L311.636 502.739C311.709 503.004 311.73 503.282 311.697 503.556C311.664 503.829 311.577 504.094 311.442 504.334C311.306 504.574 311.125 504.785 310.909 504.955C310.692 505.124 310.444 505.25 310.179 505.324C309.985 505.382 309.784 505.405 309.582 505.393L293.64 505.185L271.316 504.865C265.239 504.782 264.06 498.5 266.571 497.917C277.879 495.526 285.898 492.247 289.436 488.953C289.88 488.55 289.214 487.285 289.159 485.91Z" fill="#263238"/>
<path d="M287.064 490.079C287.903 490.217 288.701 490.538 289.404 491.018C290.106 491.498 290.695 492.126 291.129 492.859" stroke="white" stroke-width="0.5" stroke-linecap="round" stroke-linejoin="round"/>
<path d="M283.859 491.941C284.698 492.08 285.496 492.4 286.199 492.88C286.901 493.36 287.49 493.989 287.924 494.721" stroke="white" stroke-width="0.5" stroke-linecap="round" stroke-linejoin="round"/>
<path d="M279.918 493.817C280.757 493.958 281.554 494.28 282.256 494.76C282.958 495.24 283.547 495.866 283.984 496.597" stroke="white" stroke-width="0.5" stroke-linecap="round" stroke-linejoin="round"/>
<path d="M406.01 440.453L421.314 451.445L431.928 441.717L417.665 427.278L406.01 440.453Z" fill="#B97964"/>
<path d="M416.86 451.988C416.604 451.743 416.452 451.409 416.434 451.055C416.416 450.701 416.534 450.354 416.763 450.084L419.69 446.86C420.412 446.026 422.659 446.498 423.742 446.61C428.445 447.054 428.737 444.483 428.043 439.758C429.139 438.132 431.151 439.23 431.706 439.522L443.971 445.665C444.462 445.91 444.839 446.337 445.023 446.855C445.206 447.374 445.182 447.943 444.956 448.444C444.871 448.631 444.759 448.805 444.623 448.958C440.766 453.433 438.934 455.545 434.12 461.104L419.413 478.142C415.403 482.784 409.95 479.532 411.171 477.28C416.721 466.997 419.496 458.658 419.316 453.78C419.302 453.1 417.914 452.794 416.86 451.988Z" fill="#263238"/>
<path d="M418.802 456.157C419.435 455.595 420.183 455.18 420.993 454.94C421.803 454.7 422.656 454.641 423.492 454.767" stroke="white" stroke-width="0.5" stroke-linecap="round" stroke-linejoin="round"/>
<path d="M418.109 459.867C418.744 459.305 419.494 458.89 420.306 458.649C421.119 458.409 421.974 458.351 422.812 458.477" stroke="white" stroke-width="0.5" stroke-linecap="round" stroke-linejoin="round"/>
<path d="M416.957 464.147C417.587 463.583 418.335 463.165 419.146 462.925C419.957 462.684 420.811 462.627 421.647 462.758" stroke="white" stroke-width="0.5" stroke-linecap="round" stroke-linejoin="round"/>
<path d="M271.996 250.717C271.996 250.717 283.332 395.663 283.429 396.469L290.519 481.31H308.93C309.083 477.523 309.444 473.746 310.012 469.998C318.42 413.59 309.804 395.357 309.804 395.357C309.804 395.357 317.199 286.446 319.78 278.247C320.044 277.385 311.233 214.973 271.996 250.717Z" fill="#263238"/>
<path d="M271.719 250.481L272.232 251.328C279.807 261.612 294.195 272.563 301.701 281.902L304.324 287.836C304.324 287.836 359.031 245.353 323.471 227.842C322 227.12 311.108 221.283 311.108 221.283C301.688 219.087 271.719 250.481 271.719 250.481Z" fill="#263238"/>
<path d="M353.453 288.085C356.436 306.638 365.691 354.569 370.921 372.593C370.921 372.593 387.044 381.835 396.159 392.174L425.296 433.198L412.309 444.872L359.253 405.96C347.265 396.913 342.395 390.201 337.692 381.376C326.176 359.836 320.501 332.389 313.62 310.71C310.442 300.648 298.219 268.254 299.259 257.831C300.647 243.74 301.146 220.935 318.254 228.647C334.584 233.553 344.282 236.583 353.453 288.085Z" fill="#263238"/>
<path opacity="0.2" d="M312.787 315.602L299.329 265.822L283.997 260.694L295.971 271.881L312.787 315.602Z" fill="black"/>
<path d="M251.503 158.065C246.522 162.234 237.726 176.284 237.726 176.284L257.539 187.527C257.539 187.527 267.667 172.768 266.627 166.195C266.431 164.518 265.834 162.913 264.886 161.517C263.938 160.122 262.668 158.976 261.183 158.177C259.698 157.379 258.042 156.952 256.357 156.932C254.672 156.913 253.007 157.301 251.503 158.065Z" fill="#263238"/>
<path opacity="0.5" d="M251.503 158.065C246.522 162.234 237.726 176.284 237.726 176.284L257.539 187.527C257.539 187.527 267.667 172.768 266.627 166.195C266.431 164.518 265.834 162.913 264.886 161.517C263.938 160.122 262.668 158.976 261.183 158.177C259.698 157.379 258.042 156.952 256.357 156.932C254.672 156.913 253.007 157.301 251.503 158.065Z" fill="white"/>
<path opacity="0.3" d="M250.435 183.093V168.974C250.435 168.974 244.677 185.831 245.995 188.86C247.313 191.89 247.854 193.46 247.854 193.46L250.06 190.889L250.435 183.093Z" fill="black"/>
<path d="M322.929 219.253C318.665 214.362 315.878 208.356 314.896 201.938C313.384 192.21 311.33 178.465 311.566 177.395L312.232 150.991C306.405 145.154 284.788 145.099 284.788 145.099L270.289 148.795C270.289 148.795 264.906 151.172 260.383 153.701C254.362 157.078 251.198 157.259 250.366 161.136C250.366 161.136 249.172 173.866 248.853 186.762C248.742 191.362 270.068 233.665 270.331 241.628V254.649C301.244 270.242 333.724 231.691 333.724 231.691L322.929 219.253Z" fill="#263238"/>
<path opacity="0.5" d="M322.929 219.253C318.665 214.362 315.878 208.356 314.896 201.938C313.384 192.21 311.33 178.465 311.566 177.395L312.232 150.991C306.405 145.154 284.788 145.099 284.788 145.099L270.289 148.795C270.289 148.795 264.906 151.172 260.383 153.701C254.362 157.078 251.198 157.259 250.366 161.136C250.366 161.136 249.172 173.866 248.853 186.762C248.742 191.362 270.068 233.665 270.331 241.628V254.649C301.244 270.242 333.724 231.691 333.724 231.691L322.929 219.253Z" fill="white"/>
<path opacity="0.3" d="M312.815 187.665C312.815 187.665 299.259 175.408 299.953 169.683L311.469 175.881L312.246 183.649L312.815 187.665Z" fill="black"/>
<path d="M322.749 162.525C323.068 162.984 342.687 185.108 350.567 193.488C352.261 195.281 353.573 197.399 354.425 199.714L370.602 245.004L360.474 248.048L337.206 204.244L307.973 179.466L322.749 162.525Z" fill="#B97964"/>
<path d="M360.085 244.407C358.531 246.215 357.657 248.511 357.616 250.897C357.879 254.302 357.199 257.081 357.616 259.583C358.032 262.084 359.822 259.207 360.488 257.47C361.154 255.733 361.875 253.774 363.138 254.482C364.4 255.191 370.436 265.725 372.239 266.517C374.043 267.309 373.627 265.294 373.627 265.294C373.627 265.294 375.167 267.81 376.332 267.476C376.638 267.379 377.193 266.684 376.665 265.433C375.486 262.654 372.711 256.789 372.711 256.789C372.864 257.123 376.874 264.057 377.526 265.016C378.483 266.267 379.565 266.406 380.301 265.795C381.313 264.975 376.707 256.219 376.776 255.719C376.776 255.719 379.246 260.847 380.939 260.931C382.631 261.014 381.23 257.706 379.454 255.01C377.817 252.551 375.292 247.284 373.377 244.935C371.046 242.044 368.826 240.627 365.455 241.516C363.444 241.994 361.593 242.991 360.085 244.407Z" fill="#B97964"/>
<path d="M308.569 149.031C315.146 149.448 327.078 165.902 327.078 165.902L311.622 183.399C311.622 183.399 297.137 170.725 296.887 162.248C296.693 155.063 300.217 148.462 308.569 149.031Z" fill="#263238"/>
<path opacity="0.5" d="M308.569 149.031C315.146 149.448 327.078 165.902 327.078 165.902L311.622 183.399C311.622 183.399 297.137 170.725 296.887 162.248C296.693 155.063 300.217 148.462 308.569 149.031Z" fill="white"/>
<path d="M261.105 86.092C257.589 87.4441 254.467 89.6551 252.022 92.5239C249.577 95.3928 247.887 98.8284 247.105 102.518C246.481 110.148 247.91 115.929 248.34 123.545L277.338 83.8962C272.565 83.9101 270.706 82.5482 261.105 86.092Z" fill="#263238"/>
<path d="M271.774 84.2017C280.224 82.1311 286.856 87.8844 290.602 91.6783C292.545 94.1986 293.927 97.1056 294.657 100.205C295.387 103.304 295.447 106.523 294.834 109.647C293.557 115.581 292.059 122.766 287.771 125.142C286.599 125.829 285.297 126.265 283.948 126.423C282.599 126.581 281.231 126.457 279.932 126.06L256.637 93.2348C260.847 89.001 266.052 85.8948 271.774 84.2017Z" fill="#263238"/>
<path d="M283.054 133.106C283.068 132.879 283.068 132.652 283.054 132.425C282.933 131.386 282.486 130.413 281.778 129.645C281.337 129.148 280.802 128.743 280.204 128.456C279.605 128.168 278.955 128.003 278.292 127.971C277.629 127.938 276.966 128.039 276.342 128.267C275.718 128.495 275.146 128.846 274.66 129.298L266.599 132.883C266.592 133.008 266.592 133.134 266.599 133.259L267.986 145.155C268.208 148.684 264.212 151.603 261.979 153.159C260.591 154.202 257.941 163.86 266.932 171.017C269.582 173.143 273.675 169.627 276.339 167.362C287.272 156.814 287.05 147.086 287.05 147.086C282.985 143.473 282.693 140.958 283.054 133.106Z" fill="#B97964"/>
<path opacity="0.2" d="M263.588 132.258C263.653 132.148 263.704 132.032 263.741 131.91L272.482 131.09C273.095 130.835 273.753 130.704 274.417 130.706C275.082 130.708 275.739 130.842 276.351 131.101C276.963 131.359 277.517 131.737 277.982 132.213C278.447 132.688 278.813 133.251 279.058 133.87C279.461 134.592 280.446 129.52 279.419 136.149V136.246L267.861 144.39C267.861 144.39 266.474 134.731 266.391 134.662C266.308 134.592 263.588 132.258 263.588 132.258Z" fill="black"/>
<path d="M290.102 110.509C286.828 124.17 285.76 129.965 277.615 136.149C265.461 145.391 249.783 139.179 248.937 125.032C248.271 112.274 253.64 92.1234 267.848 88.3851C282.055 84.6468 293.363 96.8484 290.102 110.509Z" fill="#B97964"/>
<path d="M293.599 123.447C291.801 125.877 289.128 127.507 286.148 127.992C282.333 128.506 281.209 122.349 282.943 118.778C283.74 117.176 285.076 115.906 286.715 115.192C288.354 114.478 290.192 114.365 291.906 114.873C295.347 115.985 295.902 120.376 293.599 123.447Z" fill="#B97964"/>
<path opacity="0.2" d="M285.898 121.85C286.176 120.516 286.95 119.339 288.063 118.556C289.181 117.785 290.554 117.481 291.892 117.708" stroke="black" stroke-width="0.5" stroke-linecap="round" stroke-linejoin="round"/>
<path d="M271.08 112.9C270.817 114.373 269.859 115.498 268.944 115.415C268.028 115.332 267.487 114.025 267.75 112.636C268.014 111.246 268.971 110.037 269.887 110.12C270.803 110.204 271.344 111.427 271.08 112.9Z" fill="#263238"/>
<path d="M257.345 111.329C257.095 112.719 256.151 113.844 255.236 113.761C254.32 113.678 253.779 112.455 254.042 110.982C254.306 109.508 255.236 108.466 256.151 108.55C257.067 108.633 257.608 109.912 257.345 111.329Z" fill="#263238"/>
<path d="M274.646 108.064C274.557 108.064 274.469 108.046 274.388 108.01C274.306 107.974 274.234 107.922 274.174 107.855C273.65 107.207 272.971 106.703 272.199 106.389C271.427 106.076 270.589 105.963 269.762 106.062C269.676 106.078 269.588 106.076 269.503 106.056C269.418 106.037 269.337 105.999 269.267 105.947C269.197 105.895 269.138 105.829 269.094 105.753C269.051 105.678 269.023 105.594 269.013 105.507C269.003 105.319 269.06 105.135 269.175 104.987C269.29 104.839 269.454 104.737 269.637 104.701C270.672 104.571 271.723 104.704 272.693 105.088C273.662 105.471 274.52 106.093 275.187 106.896C275.262 107.008 275.305 107.139 275.312 107.273C275.32 107.408 275.29 107.542 275.228 107.661C275.166 107.781 275.072 107.881 274.957 107.952C274.843 108.023 274.711 108.061 274.577 108.064H274.646Z" fill="#263238"/>
<path d="M253.64 103.797C253.572 103.765 253.512 103.718 253.464 103.661C253.417 103.603 253.382 103.536 253.363 103.463C253.329 103.289 253.357 103.108 253.44 102.952C253.523 102.795 253.657 102.671 253.82 102.602C254.712 102.147 255.705 101.931 256.705 101.975C257.704 102.019 258.675 102.321 259.523 102.852C259.639 102.973 259.704 103.135 259.704 103.303C259.704 103.472 259.639 103.633 259.523 103.755C259.427 103.898 259.279 103.998 259.111 104.034C258.943 104.07 258.767 104.04 258.621 103.95C257.947 103.535 257.177 103.303 256.387 103.276C255.596 103.249 254.812 103.429 254.112 103.797C253.961 103.858 253.791 103.858 253.64 103.797Z" fill="#263238"/>
<path d="M261.174 111.065C259.53 113.914 257.606 116.591 255.43 119.056C255.314 119.177 255.229 119.323 255.18 119.483C255.131 119.643 255.121 119.813 255.149 119.978C255.177 120.142 255.244 120.298 255.343 120.433C255.443 120.567 255.572 120.676 255.721 120.752C256.897 121.255 258.188 121.424 259.453 121.238L261.174 111.065Z" fill="#A24E3F"/>
<path d="M270.4 110.204L267.306 109.092C267.306 109.092 268.819 111.677 270.4 110.204Z" fill="#263238"/>
<path d="M256.484 108.73L253.376 107.604C253.376 107.604 254.819 110.12 256.484 108.73Z" fill="#263238"/>
<path d="M259.523 125.17C260.237 126.582 260.845 128.045 261.34 129.548L262.173 129.395C265.919 128.686 267.445 127.116 268 125.601C268.258 124.856 268.334 124.061 268.222 123.28C268.178 122.84 268.066 122.408 267.889 122.002C266.113 123.558 262.658 124.49 260.799 124.906C260.022 125.087 259.523 125.17 259.523 125.17Z" fill="#263238"/>
<path d="M260.799 124.906L261.368 126.185C264.892 125.504 267.306 124.559 268.222 123.28C268.178 122.84 268.066 122.408 267.889 122.002C266.113 123.558 262.659 124.49 260.799 124.906Z" fill="white"/>
<path d="M262.173 129.395C265.919 128.687 267.445 127.116 268 125.602C266.579 125.899 265.222 126.444 263.99 127.214C263.172 127.733 262.536 128.496 262.173 129.395Z" fill="#DE5753"/>
<path d="M284.664 112.899C284.664 112.899 278.808 102.407 280.224 94.6944C280.224 94.6944 253.723 82.9653 251.087 107.66C251.087 107.66 249.589 85.5501 273.078 86.648C296.568 87.7458 294.806 118.611 282.235 126.949C282.194 126.866 288.243 119.487 284.664 112.899Z" fill="#263238"/>
<path d="M262.062 87.6211C258.44 89.9154 255.626 93.288 254.015 97.2657C253.376 100.254 256.942 103.2 256.942 103.2L263.269 97.6409L262.034 103.353C265.507 103.78 269.031 103.225 272.206 101.752C275.381 100.278 278.081 97.9445 280.002 95.0143L277.227 86.023C277.227 86.023 265.239 85.8145 262.062 87.6211Z" fill="#263238"/>
<path d="M351.025 109.689C350.164 110.525 349.125 111.154 347.986 111.529C346.846 111.905 345.637 112.017 344.449 111.857C345.458 110.718 346.176 109.349 346.541 107.87C346.906 106.391 346.907 104.846 346.544 103.366C338.746 106.465 329.437 110.315 321.972 106.354C318.545 104.533 316.339 100.601 313.647 97.6683C310.956 94.736 307.917 91.8593 304.268 90.7198C300.619 89.5802 292.697 92.5681 290.713 96.1674L290.227 103.255C294.001 102.546 299.939 105.298 301.59 109.133C303.11 112.644 304.848 116.055 306.793 119.348C309.416 123.892 311.982 126.755 316.506 128.742C318.531 129.659 323.138 130.646 329.978 130.132C335.403 129.784 340.966 128.603 345.476 125.226C349.985 121.849 352.926 115.359 351.025 109.689Z" fill="#263238"/>
</g>
<defs>
<clipPath id="clip0_15_2497">
<rect width="590" height="615" fill="white"/>
</clipPath>
</defs>
</svg>
